<mxfile>
    <diagram id="4_PGWqcjnM2km9wgUPT8" name="PÃ¡gina-1">
        <mxGraphModel dx="820" dy="488" grid="1" gridSize="10" guides="1" tooltips="1" connect="1" arrows="1" fold="1" page="1" pageScale="1" pageWidth="827" pageHeight="1169" math="0" shadow="0">
            <root>
                <mxCell id="0"/>
                <mxCell id="1" parent="0"/>
                <mxCell id="8" style="edgeStyle=orthogonalEdgeStyle;rounded=0;orthogonalLoop=1;jettySize=auto;html=1;entryX=0;entryY=0.5;entryDx=0;entryDy=0;strokeColor=#FF0000;" edge="1" parent="1" source="2" target="3">
                    <mxGeometry relative="1" as="geometry"/>
                </mxCell>
                <mxCell id="2" value="" style="ellipse;whiteSpace=wrap;html=1;aspect=fixed;fillColor=#030303;strokeColor=#FF0000;" vertex="1" parent="1">
                    <mxGeometry x="20" y="220" width="60" height="60" as="geometry"/>
                </mxCell>
                <mxCell id="9" style="edgeStyle=orthogonalEdgeStyle;rounded=0;orthogonalLoop=1;jettySize=auto;html=1;" edge="1" parent="1" source="3">
                    <mxGeometry relative="1" as="geometry">
                        <mxPoint x="350" y="250" as="targetPoint"/>
                    </mxGeometry>
                </mxCell>
                <mxCell id="13" style="edgeStyle=orthogonalEdgeStyle;rounded=0;orthogonalLoop=1;jettySize=auto;html=1;exitX=0.75;exitY=1;exitDx=0;exitDy=0;entryX=0.9;entryY=1.017;entryDx=0;entryDy=0;entryPerimeter=0;" edge="1" parent="1" source="3" target="3">
                    <mxGeometry relative="1" as="geometry">
                        <mxPoint x="270" y="320" as="targetPoint"/>
                        <Array as="points">
                            <mxPoint x="220" y="280"/>
                            <mxPoint x="220" y="320"/>
                            <mxPoint x="268" y="320"/>
                        </Array>
                    </mxGeometry>
                </mxCell>
                <mxCell id="3" value="Sin registrar" style="rounded=1;whiteSpace=wrap;html=1;" vertex="1" parent="1">
                    <mxGeometry x="160" y="220" width="120" height="60" as="geometry"/>
                </mxCell>
                <mxCell id="10" style="edgeStyle=orthogonalEdgeStyle;rounded=0;orthogonalLoop=1;jettySize=auto;html=1;" edge="1" parent="1" source="4" target="5">
                    <mxGeometry relative="1" as="geometry"/>
                </mxCell>
                <mxCell id="4" value="Pre-registro" style="rounded=1;whiteSpace=wrap;html=1;" vertex="1" parent="1">
                    <mxGeometry x="354" y="220" width="120" height="60" as="geometry"/>
                </mxCell>
                <mxCell id="11" style="edgeStyle=orthogonalEdgeStyle;rounded=0;orthogonalLoop=1;jettySize=auto;html=1;entryX=0;entryY=0.5;entryDx=0;entryDy=0;" edge="1" parent="1" source="5" target="7">
                    <mxGeometry relative="1" as="geometry"/>
                </mxCell>
                <mxCell id="12" style="edgeStyle=orthogonalEdgeStyle;rounded=0;orthogonalLoop=1;jettySize=auto;html=1;" edge="1" parent="1" source="5" target="3">
                    <mxGeometry relative="1" as="geometry">
                        <Array as="points">
                            <mxPoint x="620" y="370"/>
                            <mxPoint x="180" y="370"/>
                        </Array>
                    </mxGeometry>
                </mxCell>
                <mxCell id="5" value="Registrado" style="rounded=1;whiteSpace=wrap;html=1;" vertex="1" parent="1">
                    <mxGeometry x="560" y="220" width="120" height="60" as="geometry"/>
                </mxCell>
                <mxCell id="6" value="" style="ellipse;whiteSpace=wrap;html=1;aspect=fixed;strokeColor=#FF0000;fillColor=#030303;gradientColor=none;" vertex="1" parent="1">
                    <mxGeometry x="750" y="220" width="60" height="60" as="geometry"/>
                </mxCell>
                <mxCell id="7" value="" style="ellipse;whiteSpace=wrap;html=1;aspect=fixed;strokeColor=#FF0000;gradientColor=none;fillColor=none;" vertex="1" parent="1">
                    <mxGeometry x="745" y="215" width="70" height="70" as="geometry"/>
                </mxCell>
                <mxCell id="16" value="Entra al aeropuerto" style="text;strokeColor=none;fillColor=none;html=1;fontSize=15;fontStyle=0;verticalAlign=middle;align=center;" vertex="1" parent="1">
                    <mxGeometry x="60" y="175" width="100" height="40" as="geometry"/>
                </mxCell>
                <mxCell id="17" value="llena el formato" style="text;strokeColor=none;fillColor=none;html=1;fontSize=15;fontStyle=0;verticalAlign=middle;align=center;" vertex="1" parent="1">
                    <mxGeometry x="270" y="175" width="100" height="40" as="geometry"/>
                </mxCell>
                <mxCell id="18" value="Se acepta el formato" style="text;strokeColor=none;fillColor=none;html=1;fontSize=15;fontStyle=0;verticalAlign=middle;align=center;" vertex="1" parent="1">
                    <mxGeometry x="480" y="170" width="100" height="40" as="geometry"/>
                </mxCell>
                <mxCell id="19" value="Se declina el formato" style="text;strokeColor=none;fillColor=none;html=1;fontSize=15;fontStyle=0;verticalAlign=middle;align=center;" vertex="1" parent="1">
                    <mxGeometry x="350" y="380" width="100" height="40" as="geometry"/>
                </mxCell>
                <mxCell id="20" value="No llena el formato" style="text;strokeColor=none;fillColor=none;html=1;fontSize=15;fontStyle=0;verticalAlign=middle;align=center;" vertex="1" parent="1">
                    <mxGeometry x="210" y="310" width="100" height="40" as="geometry"/>
                </mxCell>
            </root>
        </mxGraphModel>
    </diagram>
</mxfile>